# xmcd CD database file
#
# Track frame offsets:
#	150
#	19067
#	42157
#	60377
#	77045
#	96277
#	124970
#	143877
#	165865
#	182507
#	224045
#	244215
#	256700
#	277792
#
# Disc length: 3937 seconds
#
# Revision: 2
# Processed by: cddbd v1.5.2PL0 Copyright (c) Steve Scherf et al.
# Submitted via: CDex 1.70
#
DISCID=b90f5f0e
DTITLE=guccini - live collection
DYEAR=1900
DGENRE=Country
TTITLE0=canzone per silvia
TTITLE1=
TTITLE2=
TTITLE3=
TTITLE4=
TTITLE5=
TTITLE6=
TTITLE7=
TTITLE8=
TTITLE9=
TTITLE10=
TTITLE11=
TTITLE12=
TTITLE13=
EXTD=
EXTT0=
EXTT1=
EXTT2=
EXTT3=
EXTT4=
EXTT5=
EXTT6=
EXTT7=
EXTT8=
EXTT9=
EXTT10=
EXTT11=
EXTT12=
EXTT13=
PLAYORDER=
